<?xml version="1.0" standalone="no"?>
<!DOCTYPE svg PUBLIC "-//W3C//DTD SVG 20010904//EN"
 "http://www.w3.org/TR/2001/REC-SVG-20010904/DTD/svg10.dtd">
<svg version="1.0" xmlns="http://www.w3.org/2000/svg"
 width="512.000000pt" height="512.000000pt" viewBox="0 0 512.000000 512.000000"
 preserveAspectRatio="xMidYMid meet">
<metadata>
Created by potrace 1.14, written by Peter Selinger 2001-2017
</metadata>
<g transform="translate(0.000000,512.000000) scale(0.100000,-0.100000)"
fill="#000000" stroke="none">
<path d="M0 2560 l0 -2560 2560 0 2560 0 0 2560 0 2560 -2560 0 -2560 0 0
-2560z m1923 1433 l158 -318 -3 -234 -3 -234 -154 232 c-85 127 -157 231 -160
231 -4 0 -138 -228 -298 -507 l-291 -508 -386 -3 c-212 -1 -386 0 -386 2 0 3
237 294 527 648 290 354 594 725 676 826 82 100 152 182 156 182 3 0 77 -143
164 -317z m2048 -420 c332 -406 636 -778 676 -828 l74 -90 -383 -3 c-332 -2
-384 0 -394 13 -6 8 -139 238 -295 510 -156 272 -286 495 -290 495 -3 0 -75
-104 -160 -231 l-154 -232 -3 234 -3 234 158 318 c87 174 161 317 165 317 4 0
278 -332 609 -737z m899 -1973 l0 -870 -972 0 -973 0 -179 270 c-99 149 -182
270 -186 270 -4 0 -87 -121 -186 -270 l-179 -270 -972 0 -973 0 0 870 0 870
2310 0 2310 0 0 -870z"/>
<path d="M480 1600 l0 -640 720 0 720 0 160 320 160 320 0 320 0 320 -880 0
-880 0 0 -640z"/>
<path d="M2880 1920 l0 -320 160 -320 160 -320 720 0 720 0 0 640 0 640 -880
0 -880 0 0 -320z"/>
</g>
</svg>
